<svg viewBox="0 0 34 23" className="_2gfg23" aria-hidden="true"><path rillrule="evenodd" d="M3 1.5C2.17157 1.5 1.5 2.17157 1.5 3V8.03559C2.69554 8.72699 3.5 10.0186 3.5 11.5C3.5 12.9814 2.69554 14.273 1.5 14.9644V20C1.5 20.8284 2.17157 21.5 3 21.5H31C31.8284 21.5 32.5 20.8284 32.5 20V14.9644C31.3045 14.273 30.5 12.9814 30.5 11.5C30.5 10.0186 31.3045 8.72699 32.5 8.03559V3C32.5 2.17157 31.8284 1.5 31 1.5H3ZM34 9.05001V3C34 1.34315 32.6569 0 31 0H3C1.34315 0 0 1.34315 0 3V9.05001C1.14112 9.28164 2 10.2905 2 11.5C2 12.7095 1.14112 13.7184 0 13.95V20C0 21.6569 1.34315 23 3 23H31C32.6569 23 34 21.6569 34 20V13.95C32.8589 13.7184 32 12.7095 32 11.5C32 10.2905 32.8589 9.28164 34 9.05001Z"></path></svg>