<svg viewBox="0 0 22 22" className="_5z8dW2" aria-hidden="true"><path d="M20.8 7.5 16 3.1V6h-2.6c-2.8 0-5 2.3-5.4 5.4 0-.1.1-.1.1-.2.2-.3.5-.7.9-1 1.1-.9 2.5-1.4 4.2-1.4H16v2.9l4.8-4.2zM15 2.9c0-.8 1-1.2 1.6-.7l4.9 4.5c.4.4.4 1 0 1.3l-4.9 4.5c-.6.7-1.6.3-1.6-.5V9.9h-1.7c-1.6 0-2.7.5-3.6 1.2-.3.3-.5.5-.7.8-.1.2-.2.3-.2.3-.2.5-.7.6-1.1.5-.4-.1-.7-.4-.7-1C7.3 8 9.8 5 13.4 5H15V2.9zM4 6.5c0-.3.2-.5.5-.5h3.4c.3 0 .5-.2.5-.5S8.1 5 7.9 5H4.5C3.7 5 3 5.7 3 6.5v10c0 .8.7 1.5 1.5 1.5h10c.8 0 1.5-.7 1.5-1.5v-2c0-.3-.2-.5-.5-.5s-.5.2-.5.5v2c0 .3-.2.5-.5.5h-10c-.3 0-.5-.2-.5-.5v-10z"></path></svg>